<svg version="1" xmlns="http://www.w3.org/2000/svg" width="402.667" height="402.667" viewBox="0 0 302.000000 302.000000"><path d="M268.6 21.7c-.2.3-1.5.6-2.8.7-2 .3-20.8 6.2-54.3 17.1-5.5 1.8-12.2 3.9-15 4.8-13.6 4.2-50.2 16-52 16.7-1.1.4-7.4 2.5-14 4.5S116 70 113 71s-16.3 5.3-29.5 9.5-29.1 9.4-35.4 11.4l-11.3 3.8-2.2-2.4c-5.7-6.6-11.6-8.2-17.7-4.6-3.9 2.3-5.2 5.7-5.5 14.3-.3 10.2 3.7 27.4 9.1 39.5.7 1.6 2.3 5.5 3.6 8.5 2.9 6.9 12.2 24.1 16 29.7 1.6 2.3 2.9 4.6 2.9 5.2 0 .6.3 1.1.8 1.1.4 0 1.6 1.6 2.6 3.5 1.1 1.9 2.3 3.5 2.8 3.5.4 0 .8.7.8 1.5 0 .7.8 1.9 1.7 2.4 1 .6 1.4 1.1 1 1.1-.5 0-.2.6.5 1.4 1.5 1.6 2.9 3.3 7.8 9.6 10.2 13.2 31 33.3 46 44.6 24.1 18.3 49.8 29.1 59.7 25.3 8-3 9.8-12.9 3.7-20.2-2.4-2.9-2.4-2.9-.5-6.1 3.1-5.1 18.7-32.8 46.8-83.1 17.4-31 16.7-29.8 23.8-42.5 3.2-5.8 10.8-19.5 17-30.5 6.2-11 12.4-22.3 14-25 1.5-2.8 5.2-9.4 8.2-14.7 7.1-12.6 9.5-19.1 9.5-25.5.1-5.7-1-7.6-5.4-9.9-2.6-1.4-14-1.8-15.2-.7z"/></svg>